#!OML:ASF F:\VICON\USERDATA\INSTALL\Justin_Nancy\Justin_Nancy.ASF
:FULLY-SPECIFIED
:DEGREES
220
root -13.6889 17.4574 7.03006 0.694577 -88.6731 -0.199625
lowerback 8.62206 -0.333135 -1.6688
upperback 0.00206792 -0.492474 3.26571
thorax -4.7983 -0.183573 4.41886
lowerneck -15.0585 -3.60575 -7.38086
upperneck 24.1446 -4.57729 4.0206
head 10.4904 -2.44072 2.03262
rclavicle 7.95139e-016 1.43125e-014
rhumerus -37.741 -24.8233 -71.717
rradius 25.236
rwrist 15.0798
rhand -15.0492 12.8478
rfingers 7.12502
rthumb 11.1173 -16.8377
lclavicle 7.95139e-016 1.43125e-014
lhumerus -33.3281 6.92139 88.4613
lradius 23.6428
lwrist 0.670597
lhand -21.6903 23.6255
lfingers 7.12502
lthumb 4.7078 53.5532
rfemur -18.5159 5.30708 26.6683
rtibia 27.4052
rfoot -4.89196 -5.17557
rtoes 9.23759
lfemur -12.2584 -0.632353 -19.315
ltibia 62.532
lfoot 12.1275 -11.1551
ltoes -1.51399
221
root -13.9156 17.4852 7.05262 0.176595 -88.6903 0.277706
lowerback 8.35142 -0.0859628 -1.64662
upperback 0.0694818 -0.16792 3.03147
thorax -4.60436 -0.0283275 4.11327
lowerneck -14.6566 -3.8338 -7.01503
upperneck 23.8657 -5.03548 4.09754
head 10.3319 -2.61129 1.93971
rclavicle 3.23025e-015 -4.45278e-014
rhumerus -37.4204 -26.083 -71.6545
rradius 25.3644
rwrist 15.2038
rhand -15.048 13.5856
rfingers 7.12502
rthumb 11.1185 -16.0998
lclavicle 3.23025e-015 -4.45278e-014
lhumerus -33.4945 7.51942 88.1066
lradius 22.9951
lwrist -0.669056
lhand -22.4853 23.7716
lfingers 7.12502
lthumb 3.94018 53.7149
rfemur -17.301 5.58731 26.6651
rtibia 26.9111
rfoot -5.37817 -5.74683
rtoes 9.26957
lfemur -13.8823 -0.328425 -19.1678
ltibia 63.5698
lfoot 9.66611 -9.26351
ltoes -0.544209
222
root -14.1464 17.5074 7.08082 18.8953 -88.8258 -18.5624
lowerback 8.11991 0.216767 -1.08864
upperback 0.165485 0.277137 2.76426
thorax -4.40591 0.174065 3.45862
lowerneck -14.5404 -4.06796 -6.49442
upperneck 23.948 -5.56851 4.27429
head 10.361 -2.7932 1.84361
rclavicle -1.2424e-015 -2.3059e-014
rhumerus -37.1366 -27.2374 -71.9307
rradius 25.5112
rwrist 15.1982
rhand -14.8681 14.2616
rfingers 7.12502
rthumb 11.2919 -15.4145
lclavicle -1.2424e-015 -2.3059e-014
lhumerus -33.6433 6.96714 87.8349
lradius 22.5092
lwrist -0.761665
lhand -22.9206 23.3269
lfingers 7.12502
lthumb 3.5198 53.2776
rfemur -16.0705 5.50812 27.1148
rtibia 26.5368
rfoot -6.046 -5.75128
rtoes 8.75981
lfemur -15.3036 -0.016555 -18.7284
ltibia 64.3936
lfoot 7.1266 -7.16611
ltoes -1.72297
223
root -14.3597 17.5171 7.09822 37.0542 -88.3179 -36.5391
lowerback 7.81651 0.257194 -0.604707
upperback 0.0810126 0.377414 2.83164
thorax -4.32733 0.213795 3.24223
lowerneck -14.3456 -4.17956 -6.35352
upperneck 24.0444 -5.80311 4.32204
head 10.3696 -2.88932 1.80768
rclavicle -1.14301e-015 -5.56597e-015
rhumerus -36.2959 -26.0897 -73.0785
rradius 25.6463
rwrist 14.4339
rhand -15.7533 13.7433
rfingers 7.12502
rthumb 10.4382 -15.9776
lclavicle -1.14301e-015 -5.56597e-015
lhumerus -34.0231 6.08357 87.9243
lradius 22.2833
lwrist 0.0578592
lhand -22.6731 22.9828
lfingers 7.12502
lthumb 3.75875 52.9294
rfemur -15.2859 5.36542 27.8259
rtibia 26.2632
rfoot -6.68495 -6.0001
rtoes 8.00507
lfemur -17.2448 0.295312 -17.926
ltibia 65.0714
lfoot 4.77762 -5.6558
ltoes -4.79584
224
root -14.5638 17.5176 7.11622 28.4323 -87.9849 -27.5997
lowerback 7.58894 0.130268 -1.07339
upperback -0.140067 0.178918 3.01966
thorax -4.42034 0.131662 3.72815
lowerneck -13.8776 -4.16361 -6.73833
upperneck 23.9608 -5.6927 4.2246
head 10.2526 -2.8946 1.86032
rclavicle 8.44835e-016 1.66979e-014
rhumerus -35.2483 -23.9028 -73.8805
rradius 25.5442
rwrist 14.0542
rhand -16.6249 13.1984
rfingers 7.12502
rthumb 9.59726 -16.563
lclavicle 8.44835e-016 1.66979e-014
lhumerus -34.4602 6.28889 88.2067
lradius 21.8584
lwrist 0.89582
lhand -22.4071 23.4542
lfingers 7.12502
lthumb 4.01564 53.3961
rfemur -14.6668 5.45727 27.7412
rtibia 25.9992
rfoot -7.28829 -6.6086
rtoes 8.77137
lfemur -19.2725 0.482922 -17.9211
ltibia 65.4164
lfoot 2.99028 -4.15429
ltoes -7.7489
225
root -14.7829 17.5261 7.15918 26.0752 -88.164 -25.209
lowerback 7.44132 0.184201 -1.24253
upperback -0.223766 0.239036 3.02661
thorax -4.42978 0.167264 3.82437
lowerneck -13.6085 -4.13192 -7.12269
upperneck 24.1291 -5.60164 4.25491
head 10.2699 -2.89403 1.95214
rclavicle -3.23025e-015 -1.35174e-014
rhumerus -34.6474 -23.1588 -74.046
rradius 25.6628
rwrist 14.5672
rhand -16.3951 13.345
rfingers 7.12502
rthumb 9.81898 -16.406
lclavicle -3.23025e-015 -1.35174e-014
lhumerus -34.8009 7.47109 87.8784
lradius 21.2741
lwrist 0.799807
lhand -22.7864 24.1568
lfingers 7.12502
lthumb 3.64935 54.1053
rfemur -13.6439 5.51607 27.5584
rtibia 25.7572
rfoot -8.18429 -6.68793
rtoes 10.3356
lfemur -20.6211 0.931967 -18.1564
ltibia 65.4408
lfoot 1.57684 -2.53475
ltoes -9.27822
226
root -15.0104 17.5395 7.21025 43.559 -88.2686 -42.7642
lowerback 7.12811 0.454769 -0.377527
upperback -0.0930982 0.658841 2.77241
thorax -4.13493 0.349575 3.02009
lowerneck -13.7079 -4.29921 -6.85175
upperneck 24.3502 -5.94052 4.34595
head 10.3848 -3.01603 1.89131
rclavicle -8.64713e-015 -1.51076e-014
rhumerus -34.1545 -23.2449 -74.7863
rradius 26.199
rwrist 13.7414
rhand -16.5922 13.6587
rfingers 7.12502
rthumb 9.62883 -16.1012
lclavicle -8.64713e-015 -1.51076e-014
lhumerus -34.9499 9.19066 86.6652
lradius 20.8534
lwrist -0.64658
lhand -23.3089 24.5422
lfingers 7.12502
lthumb 3.1448 54.4988
rfemur -12.4945 5.30724 27.97
rtibia 25.5556
rfoot -9.119 -6.35184
rtoes 10.7395
lfemur -21.7286 1.61165 -17.773
ltibia 65.2617
lfoot 0.208845 -1.39558
ltoes -9.63413
227
root -15.2344 17.534 7.23632 64.2596 -87.8137 -63.48
lowerback 6.79489 0.725411 0.42387
upperback 0.0156173 1.07356 2.79594
thorax -3.84305 0.535604 2.55009
lowerneck -13.6488 -4.43318 -6.62688
upperneck 24.3123 -6.21085 4.4319
head 10.3716 -3.11012 1.84834
rclavicle -9.44227e-015 -2.46493e-014
rhumerus -33.5959 -23.1181 -75.4392
rradius 26.841
rwrist 12.3058
rhand -16.3902 13.9151
rfingers 7.12502
rthumb 9.82368 -15.8357
lclavicle -9.44227e-015 -2.46493e-014
lhumerus -35.2099 10.9379 85.5646
lradius 20.5825
lwrist -2.07097
lhand -23.618 24.6314
lfingers 7.12502
lthumb 2.84629 54.5922
rfemur -11.5934 5.35371 28.8689
rtibia 25.583
rfoot -9.8939 -6.55342
rtoes 9.9317
lfemur -22.9703 2.35218 -16.8012
ltibia 64.9291
lfoot -1.13058 -0.415617
ltoes -10.9016
228
root -15.4549 17.5125 7.25867 66.6268 -87.2541 -66.2658
lowerback 7.07241 0.718995 0.591402
upperback 0.111611 1.08613 3.14283
thorax -3.90416 0.537552 2.81388
lowerneck -13.4178 -4.4604 -7.02601
upperneck 24.16 -6.18045 4.51763
head 10.2875 -3.12554 1.95395
rclavicle 3.57812e-015 1.03368e-014
rhumerus -33.0778 -22.1918 -75.6161
rradius 27.554
rwrist 11.3714
rhand -15.816 13.7472
rfingers 7.12502
rthumb 10.3777 -15.9767
lclavicle 3.57812e-015 1.03368e-014
lhumerus -35.7521 12.9016 84.8001
lradius 20.4169
lwrist -3.00603
lhand -23.7109 24.3482
lfingers 7.12502
lthumb 2.75653 54.3102
rfemur -10.2293 5.62282 29.5715
rtibia 25.4415
rfoot -10.2917 -7.37273
rtoes 7.39783
lfemur -23.9344 2.34944 -16.1586
ltibia 64.5928
lfoot -2.37065 1.54255
ltoes -10.5202
229
root -15.6603 17.4927 7.30707 28.4899 -87.7405 -28.7589
lowerback 7.89727 0.462996 -0.843812
upperback 0.180769 0.629278 2.85205
thorax -4.28728 0.342442 3.36968
lowerneck -13.2832 -4.45696 -7.33743
upperneck 24.0796 -6.10511 4.51853
head 10.2391 -3.12067 2.01891
rclavicle 3.8266e-015 2.70347e-014
rhumerus -32.5076 -19.3396 -76.6556
rradius 28.5846
rwrist 8.6193
rhand -16.6911 12.6213
rfingers 7.12502
rthumb 9.53335 -17.143
lclavicle 3.8266e-015 2.70347e-014
lhumerus -36.3162 14.3763 84.1743
lradius 20.2548
lwrist -3.81167
lhand -24.0068 23.9251
lfingers 7.12502
lthumb 2.47076 53.8905
rfemur -8.83558 5.2415 27.9732
rtibia 25.4382
rfoot -10.7758 -7.94626
rtoes 5.01862
lfemur -24.6962 1.08627 -17.9733
ltibia 63.9319
lfoot -3.28534 3.91077
ltoes -8.68041
230
root -15.8658 17.4701 7.401 55.0018 -86.6758 -54.654
lowerback 7.34591 0.436059 1.62069
upperback -0.0657976 0.80445 3.08229
thorax -4.21413 0.376289 2.19983
lowerneck -13.185 -4.49663 -7.56266
upperneck 24.0936 -6.14277 4.61606
head 10.2394 -3.14973 2.0878
rclavicle 6.21202e-015 -7.95139e-016
rhumerus -32.1632 -15.8024 -77.94
rradius 29.8822
rwrist 4.81439
rhand -17.6896 11.8169
rfingers 7.12502
rthumb 8.56993 -17.9892
lclavicle 6.21202e-015 -7.95139e-016
lhumerus -36.7923 14.0234 84.3167
lradius 20.4013
lwrist -3.59335
lhand -24.522 24.6515
lfingers 7.12502
lthumb 1.97322 54.6221
rfemur -8.71596 4.67288 29.4231
rtibia 25.3127
rfoot -11.4659 -7.33781
rtoes 4.2556
lfemur -26.8878 0.918861 -16.3773
ltibia 63.4781
lfoot -4.37504 5.17251
ltoes -6.36125
